<?xml version="1.0" encoding="utf-8"?>
<!-- Generator: Adobe Illustrator 16.0.0, SVG Export Plug-In . SVG Version: 6.00 Build 0)  -->
<!DOCTYPE svg PUBLIC "-//W3C//DTD SVG 1.1//EN" "http://www.w3.org/Graphics/SVG/1.1/DTD/svg11.dtd">
<svg version="1.1" id="Layer_1" xmlns="http://www.w3.org/2000/svg" xmlns:xlink="http://www.w3.org/1999/xlink" x="0px" y="0px"
	 width="712px" height="178px" viewBox="0 0 712 178" enable-background="new 0 0 712 178" xml:space="preserve">
<g>
	<defs>
		<path id="SVGID_1_" d="M101.871,123.047l-12.294-16.829l-47.13,44.771l-7.323,9.683h85.4c17.035,0,30.843-13.809,30.843-30.843
			V60.544L101.871,123.047z"/>
	</defs>
	<clipPath id="SVGID_2_">
		<use xlink:href="#SVGID_1_"  overflow="visible"/>
	</clipPath>
	
		<linearGradient id="SVGID_3_" gradientUnits="userSpaceOnUse" x1="-44" y1="409" x2="-43" y2="409" gradientTransform="matrix(0 -100.1272 -100.1272 0 41045.2656 -4244.9087)">
		<stop  offset="0" style="stop-color:#B55D27"/>
		<stop  offset="1" style="stop-color:#4D2610"/>
	</linearGradient>
	<rect x="35.124" y="60.544" clip-path="url(#SVGID_2_)" fill="url(#SVGID_3_)" width="116.243" height="100.127"/>
</g>
<g>
	<defs>
		<path id="SVGID_4_" d="M120.102,18.926l-78.3,0.025C24.075,18.955,9.708,33.327,9.708,51.054v77.218
			c0,12.278,9.953,22.232,22.232,22.232L82.841,83.81l19.248,23.04l49.278-56.669c0-17.263-13.992-31.256-31.253-31.254
			C120.111,18.926,120.106,18.926,120.102,18.926"/>
	</defs>
	<clipPath id="SVGID_5_">
		<use xlink:href="#SVGID_4_"  overflow="visible"/>
	</clipPath>
	
		<radialGradient id="SVGID_6_" cx="-44" cy="409" r="1" gradientTransform="matrix(-89.5632 -92.8777 -92.8777 89.5632 34139.3164 -40607.9961)" gradientUnits="userSpaceOnUse">
		<stop  offset="0" style="stop-color:#7BC7D9"/>
		<stop  offset="1" style="stop-color:#33606B"/>
	</radialGradient>
	<polygon clip-path="url(#SVGID_5_)" fill="url(#SVGID_6_)" points="77.965,221.288 -56.039,82.325 83.11,-51.859 217.114,87.104 	
		"/>
</g>
<g>
	<path fill="#FFFFFF" d="M123.604,10.773H40.119c-21.316,0-38.596,17.281-38.596,38.597v76.667c0,9.412,3.038,18.112,8.185,25.18
		v0.144l0.403,0.405c2.422,3.216,5.287,6.08,8.503,8.501l0.405,0.405h0.143c7.068,5.146,15.768,8.185,25.18,8.185h78.609
		c20.181,0,36.545-16.35,36.562-36.531l0.065-85.55C159.593,26.896,143.483,10.773,123.604,10.773 M9.708,126.768V51.177
		c0-17.793,14.424-32.217,32.217-32.217h78.33c16.041,0,29.245,12.12,30.969,27.701l-49.135,60.19l-19.248-23.04l-50.9,66.694
		c-12.28,0-22.233-9.954-22.233-22.233V126.768z M151.42,129.579c0,17.172-13.921,31.093-31.092,31.093H35.124l7.322-9.684
		l47.131-44.77l12.294,16.828l49.496-62.502L151.42,129.579z"/>
	<path fill="#FFFFFF" d="M65.718,50.561C66.139,63.756,55.355,74.54,42.159,74.12c-11.95-0.382-21.682-10.115-22.063-22.065
		C19.674,38.86,30.458,28.076,43.654,28.497C55.604,28.879,65.336,38.611,65.718,50.561"/>
	<path fill="#7BC9D9" d="M633.908,45.396c0,10.256-8.313,18.57-18.57,18.57s-18.57-8.314-18.57-18.57s8.313-18.57,18.57-18.57
		S633.908,35.14,633.908,45.396"/>
	<path d="M200.15,12.255c4.94,0,11.262,0.79,16.101,5.828c3.755,3.853,5.63,9.582,5.63,14.817c0,5.631-1.974,10.569-5.234,13.73
		c-2.569,2.47-6.026,3.952-9.088,4.544l20.644,26.967h-21.238l-16.396-25.288v25.288H173.48V12.255H200.15z M190.569,41.791h3.26
		c2.567,0,6.222-0.691,8.298-2.667c1.283-1.284,2.172-3.458,2.172-5.532c0-1.975-0.791-4.148-2.271-5.531
		c-1.582-1.581-4.446-2.568-8.199-2.568h-3.26V41.791z"/>
	<path d="M294.784,69.843c-6.716,6.421-16.199,9.78-25.979,9.78c-9.779,0-19.262-3.359-25.979-9.78
		c-7.013-6.716-10.372-15.903-10.372-24.595c0-8.792,3.359-18.077,10.372-24.695c6.717-6.421,16.2-9.78,25.979-9.78
		c9.78,0,19.263,3.359,25.979,9.78c7.014,6.618,10.373,15.903,10.373,24.695C305.157,53.94,301.798,63.127,294.784,69.843
		 M255.471,32.604c-3.558,3.457-5.235,8.297-5.235,12.94c0,5.828,2.764,9.878,5.235,12.248c3.16,3.062,7.605,5.235,13.334,5.235
		c5.828,0,10.175-2.074,13.237-5.135c3.062-3.063,5.334-7.607,5.334-12.644c0-5.137-2.272-9.681-5.334-12.644
		c-3.656-3.458-8.692-5.235-13.237-5.235C264.064,27.37,259.026,29.048,255.471,32.604"/>
	<path d="M363.34,76.364c-6.814,2.469-10.569,3.259-14.816,3.259c-11.457,0-20.052-4.544-25.485-9.878
		c-6.421-6.42-9.976-15.409-9.976-24.003c0-9.384,4.049-18.274,9.976-24.3c5.828-5.927,14.619-10.272,24.893-10.272
		c3.161,0,8.298,0.493,15.408,3.358v20.447c-5.531-6.816-12.05-7.211-14.915-7.211c-4.939,0-8.692,1.482-11.854,4.347
		c-4.049,3.753-5.728,8.89-5.728,13.532c0,4.544,1.876,9.581,5.334,12.842c2.864,2.667,7.408,4.543,12.248,4.543
		c2.569,0,8.891-0.296,14.915-6.914V76.364z"/>
	<polygon points="391.298,39.419 412.239,12.255 433.378,12.255 407.201,43.469 435.748,78.141 413.622,78.141 391.298,49.594 
		391.298,78.141 374.209,78.141 374.209,12.255 391.298,12.255 	"/>
	<path d="M470.72,58.385c3.654,3.458,9.187,6.717,15.112,6.717c3.457,0,5.531-1.087,6.618-2.272c0.988-0.987,1.68-2.469,1.68-4.149
		c0-1.283-0.494-2.765-1.877-3.95c-1.679-1.482-4.247-2.174-8.495-3.458l-4.444-1.383c-2.767-0.888-6.816-2.37-9.483-5.334
		c-3.358-3.655-3.754-8.297-3.754-11.656c0-8.099,3.161-13.039,6.026-15.903c3.357-3.358,8.889-6.223,16.891-6.223
		c6.52,0,14.125,2.074,20.349,5.334l-6.815,13.335c-5.137-4.05-8.989-4.445-11.262-4.445c-1.678,0-3.951,0.395-5.63,1.976
		c-0.987,0.988-1.68,2.074-1.68,3.556c0,1.185,0.197,2.074,0.89,2.963c0.494,0.592,1.68,1.778,5.729,2.963l5.234,1.581
		c4.148,1.284,8.496,2.765,11.953,6.519c3.358,3.556,4.247,7.211,4.247,11.755c0,6.026-1.482,11.853-6.223,16.595
		c-5.63,5.63-12.446,6.717-19.459,6.717c-4.149,0-8.101-0.395-12.941-2.173c-1.086-0.396-5.235-1.976-9.976-5.235L470.72,58.385z"/>
	<path d="M539.868,56.312v21.83h-17.089V12.256h27.262c5.73,0,11.657,1.086,16.694,5.926c5.137,4.94,6.124,10.471,6.124,16.003
		c0,5.234-0.691,11.36-5.827,16.397c-5.137,5.038-11.261,5.73-16.397,5.73H539.868z M539.868,42.482h5.729
		c1.777,0,5.136-0.197,7.21-2.074c2.074-1.778,2.173-4.445,2.173-6.026c0-1.777-0.197-4.149-1.976-5.926
		c-1.976-2.075-5.137-2.371-7.31-2.371h-5.827V42.482z"/>
	<path d="M641.316,69.843c-6.717,6.421-16.199,9.78-25.979,9.78c-9.779,0-19.262-3.359-25.979-9.78
		c-7.014-6.716-10.372-15.903-10.372-24.595c0-8.792,3.358-18.077,10.372-24.695c6.717-6.421,16.199-9.78,25.979-9.78
		c9.78,0,19.263,3.359,25.979,9.78c7.014,6.618,10.373,15.903,10.373,24.695C651.689,53.94,648.33,63.127,641.316,69.843
		 M602.003,32.604c-3.558,3.457-5.235,8.297-5.235,12.94c0,5.828,2.765,9.878,5.235,12.248c3.16,3.062,7.605,5.235,13.334,5.235
		c5.828,0,10.175-2.074,13.237-5.135c3.062-3.063,5.334-7.607,5.334-12.644c0-5.137-2.272-9.681-5.334-12.644
		c-3.656-3.458-8.692-5.235-13.237-5.235C610.596,27.37,605.558,29.048,602.003,32.604"/>
	<polygon points="687.45,26.776 687.45,78.142 670.361,78.142 670.361,26.776 656.335,26.776 656.335,12.256 701.478,12.256 
		701.478,26.776 	"/>
	<path d="M230.456,165.163c-7.724,2.798-11.978,3.694-16.791,3.694c-12.984,0-22.723-5.149-28.88-11.194
		c-7.275-7.275-11.305-17.462-11.305-27.2c0-10.633,4.589-20.708,11.305-27.536c6.605-6.716,16.567-11.641,28.208-11.641
		c3.583,0,9.402,0.559,17.463,3.805v23.171c-6.269-7.723-13.656-8.171-16.903-8.171c-5.597,0-9.85,1.679-13.432,4.925
		c-4.589,4.254-6.493,10.074-6.493,15.335c0,5.149,2.128,10.858,6.045,14.553c3.247,3.021,8.395,5.148,13.88,5.148
		c2.911,0,10.075-0.336,16.903-7.836V165.163z"/>
	<polygon points="262.134,92.517 262.134,150.724 285.416,150.724 285.416,167.179 242.769,167.179 242.769,92.517 	"/>
	<rect x="295.376" y="92.516" width="19.366" height="74.662"/>
	<polygon points="327.054,167.178 339.701,92.516 358.843,92.516 373.954,132.366 389.961,92.516 409.326,92.516 420.521,167.178 
		401.156,167.178 395.67,124.195 377.648,167.178 369.925,167.178 352.687,124.195 346.306,167.178 	"/>
	<path d="M432.833,167.178V92.517h28.88c5.373,0,11.754,0.783,16.342,5.821c2.576,2.798,4.59,7.388,4.59,13.992
		c0,3.246-0.56,6.044-2.126,9.178c-1.566,2.911-3.247,4.59-6.045,5.821c3.917,0.447,7.836,2.238,10.186,4.477
		c3.023,2.911,5.038,7.725,5.038,13.657c0,7.052-2.688,11.865-5.485,14.663c-4.029,4.142-11.081,7.052-20.261,7.052H432.833z
		 M452.198,121.956h3.582c2.016,0,5.373-0.225,7.388-2.351c1.23-1.231,1.792-3.247,1.792-4.926c0-1.903-0.673-3.806-1.792-5.037
		c-1.231-1.23-3.581-2.238-7.388-2.238h-3.582V121.956z M452.198,152.066h4.365c5.373,0,9.852-0.56,11.978-3.021
		c0.896-1.008,1.566-2.688,1.566-4.813c0-2.351-0.783-4.254-1.902-5.373c-2.35-2.352-7.164-2.463-11.978-2.463h-4.029V152.066z"/>
	<rect x="502.01" y="92.516" width="19.366" height="74.662"/>
	<polygon points="537.045,167.178 537.045,92.516 556.41,92.516 592.118,138.188 592.118,92.516 611.482,92.516 611.482,167.178 
		592.118,167.178 556.41,121.508 556.41,167.178 	"/>
	<path d="M662.972,124.866h38.506c0,14.774-3.021,25.297-11.977,33.581c-7.835,7.275-16.791,9.401-26.305,9.401
		c-13.433,0-22.611-4.924-28.656-11.08c-5.597-5.598-10.745-14.664-10.745-26.977c0-11.866,4.701-21.604,11.193-27.985
		c6.156-6.156,15.782-10.969,28.991-10.969c6.94,0,14.439,1.567,20.148,5.037c5.821,3.582,10.635,9.514,13.32,15.335l-18.47,7.612
		c-1.343-3.47-3.47-5.934-5.372-7.5c-3.247-2.687-6.716-3.694-10.41-3.694c-4.59,0-9.291,1.679-12.762,5.149
		c-4.364,4.365-6.492,11.306-6.492,17.127c0,6.828,2.464,12.424,5.933,16.118c3.583,3.806,7.947,5.709,13.656,5.709
		c3.359,0,7.276-0.561,10.747-3.471c1.79-1.456,3.917-4.142,4.589-8.283h-15.896V124.866z"/>
	<path d="M698.23,71.711c1.798,0,3.247,1.431,3.247,3.21c-0.019,1.772-1.467,3.22-3.247,3.22c-1.79,0-3.257-1.457-3.257-3.22
		C694.974,73.143,696.44,71.711,698.23,71.711 M698.23,72.292c-1.449,0-2.611,1.163-2.611,2.629c0,1.468,1.162,2.648,2.611,2.648
		c1.438,0,2.602-1.18,2.602-2.648C700.832,73.456,699.696,72.292,698.23,72.292 M698.802,75.217l1.098,1.402h-1.374l-0.674-1.033
		v1.033h-1.079v-3.496h1.458c0.747,0,1.235,0.442,1.235,1.125c0,0.443-0.248,0.831-0.627,0.95L698.802,75.217z M697.852,74.646
		h0.065c0.313,0,0.488-0.12,0.488-0.36c0-0.221-0.175-0.35-0.488-0.35h-0.065V74.646z"/>
</g>
</svg>
